<mxfile host="app.diagrams.net" agent="Mozilla/5.0 (Windows NT 10.0; Win64; x64) AppleWebKit/537.36 (KHTML, like Gecko) Chrome/128.0.0.0 Safari/537.36" version="24.7.16">
  <diagram name="Page-1" id="zaTo76ql84y3UghPxRbT">
    <mxGraphModel dx="1434" dy="738" grid="1" gridSize="10" guides="1" tooltips="1" connect="1" arrows="1" fold="1" page="1" pageScale="1" pageWidth="850" pageHeight="1100" math="0" shadow="0">
      <root>
        <mxCell id="0" />
        <mxCell id="1" parent="0" />
        <mxCell id="7KlJihol-ttdbcdvMVpt-78" value="output_variables.f90" style="rounded=0;whiteSpace=wrap;html=1;fillColor=#F8CECC;" parent="1" vertex="1">
          <mxGeometry x="518.54" y="30" width="185" height="50" as="geometry" />
        </mxCell>
        <mxCell id="7KlJihol-ttdbcdvMVpt-79" value="" style="edgeStyle=orthogonalEdgeStyle;rounded=0;orthogonalLoop=1;jettySize=auto;html=1;" parent="1" source="7KlJihol-ttdbcdvMVpt-80" target="7KlJihol-ttdbcdvMVpt-85" edge="1">
          <mxGeometry relative="1" as="geometry" />
        </mxCell>
        <mxCell id="7KlJihol-ttdbcdvMVpt-80" value="&lt;b&gt;output_variables_init(shd)&lt;/b&gt;" style="rounded=1;whiteSpace=wrap;html=1;" parent="1" vertex="1">
          <mxGeometry x="265.12" y="160" width="160" height="50" as="geometry" />
        </mxCell>
        <mxCell id="7KlJihol-ttdbcdvMVpt-81" value="" style="group" parent="1" vertex="1" connectable="0">
          <mxGeometry width="380" height="130" as="geometry" />
        </mxCell>
        <mxCell id="7KlJihol-ttdbcdvMVpt-82" value="" style="rounded=0;whiteSpace=wrap;html=1;" parent="7KlJihol-ttdbcdvMVpt-81" vertex="1">
          <mxGeometry width="380" height="130" as="geometry" />
        </mxCell>
        <mxCell id="7KlJihol-ttdbcdvMVpt-83" value="&lt;font style=&quot;font-size: 9px;&quot;&gt;Dependencies&lt;/font&gt;&lt;div&gt;&lt;div&gt;&lt;font style=&quot;font-size: 9px;&quot;&gt;Driver\MESH_Driver\output_variables.f90: output_variables_series_init&lt;/font&gt;&lt;/div&gt;&lt;div&gt;&lt;font style=&quot;font-size: 9px;&quot;&gt;Driver\MESH_Driver\output_variables.f90: output_variables_group_associate_ts&lt;/font&gt;&lt;/div&gt;&lt;/div&gt;&lt;div&gt;&lt;font size=&quot;1&quot; style=&quot;&quot;&gt;&lt;div style=&quot;&quot;&gt;Driver\MESH_Driver\output_variables.f90: output_variables_activate_vnames&lt;/div&gt;&lt;div style=&quot;&quot;&gt;Driver\MESH_Driver\output_variables.f90: output_variables_activate_pntr&lt;/div&gt;&lt;div style=&quot;&quot;&gt;Driver\MESH_Driver\output_variables.f90: output_variables_allocate&lt;/div&gt;&lt;div style=&quot;&quot;&gt;Driver\MESH_Driver\output_variables.f90: output_variables_group_reset&lt;br&gt;&lt;/div&gt;&lt;/font&gt;&lt;/div&gt;" style="text;html=1;align=left;verticalAlign=middle;whiteSpace=wrap;rounded=0;" parent="7KlJihol-ttdbcdvMVpt-81" vertex="1">
          <mxGeometry x="8.768500000000003" width="361.7315" height="126.48648648648648" as="geometry" />
        </mxCell>
        <mxCell id="7KlJihol-ttdbcdvMVpt-84" value="" style="edgeStyle=orthogonalEdgeStyle;rounded=0;orthogonalLoop=1;jettySize=auto;html=1;" parent="1" source="7KlJihol-ttdbcdvMVpt-85" target="7KlJihol-ttdbcdvMVpt-87" edge="1">
          <mxGeometry relative="1" as="geometry" />
        </mxCell>
        <mxCell id="7KlJihol-ttdbcdvMVpt-85" value="Initialize shd variable&lt;div&gt;type(ShedGridParams), intent(in) :: shd&lt;br&gt;&lt;/div&gt;" style="whiteSpace=wrap;html=1;rounded=1;" parent="1" vertex="1">
          <mxGeometry x="237.62" y="240" width="215" height="60" as="geometry" />
        </mxCell>
        <mxCell id="7KlJihol-ttdbcdvMVpt-86" value="" style="edgeStyle=orthogonalEdgeStyle;rounded=0;orthogonalLoop=1;jettySize=auto;html=1;" parent="1" source="7KlJihol-ttdbcdvMVpt-87" target="7KlJihol-ttdbcdvMVpt-89" edge="1">
          <mxGeometry relative="1" as="geometry" />
        </mxCell>
        <mxCell id="7KlJihol-ttdbcdvMVpt-87" value="&lt;div&gt;&lt;span style=&quot;background-color: initial;&quot;&gt;!&amp;gt; Initialize &#39;ts&#39; values&lt;/span&gt;&lt;/div&gt;&lt;div&gt;&lt;span style=&quot;background-color: initial;&quot;&gt;call output_variables_series_init(shd, out%ts)&lt;/span&gt;&lt;br&gt;&lt;/div&gt;" style="whiteSpace=wrap;html=1;rounded=1;fillColor=#CCFFCC;" parent="1" vertex="1">
          <mxGeometry x="216.37" y="330" width="257.5" height="60" as="geometry" />
        </mxCell>
        <mxCell id="7KlJihol-ttdbcdvMVpt-88" value="" style="edgeStyle=orthogonalEdgeStyle;rounded=0;orthogonalLoop=1;jettySize=auto;html=1;" parent="1" source="7KlJihol-ttdbcdvMVpt-89" target="7KlJihol-ttdbcdvMVpt-90" edge="1">
          <mxGeometry relative="1" as="geometry" />
        </mxCell>
        <mxCell id="7KlJihol-ttdbcdvMVpt-89" value="&lt;div&gt;!&amp;gt; Run the following for each Total, yearly, monthly, daily and hourly values:&lt;/div&gt;&lt;div&gt;call output_variables_series_init(shd, out%tot)&lt;/div&gt;&lt;div&gt;&amp;nbsp; &amp;nbsp; &amp;nbsp; &amp;nbsp; call output_variables_group_associate_ts(out%tot)&lt;/div&gt;" style="whiteSpace=wrap;html=1;rounded=1;fillColor=#CCFFCC;" parent="1" vertex="1">
          <mxGeometry x="190.12" y="420" width="310" height="80" as="geometry" />
        </mxCell>
        <mxCell id="7KlJihol-ttdbcdvMVpt-90" value="end subroutine" style="whiteSpace=wrap;html=1;rounded=1;" parent="1" vertex="1">
          <mxGeometry x="275.12" y="530" width="140" height="40" as="geometry" />
        </mxCell>
        <mxCell id="7KlJihol-ttdbcdvMVpt-91" value="" style="group" parent="1" vertex="1" connectable="0">
          <mxGeometry x="150.00190476190477" y="620" width="390.23809523809524" height="430" as="geometry" />
        </mxCell>
        <mxCell id="7KlJihol-ttdbcdvMVpt-92" value="" style="rounded=0;whiteSpace=wrap;html=1;" parent="7KlJihol-ttdbcdvMVpt-91" vertex="1">
          <mxGeometry x="0.2380952380952337" width="390" height="430" as="geometry" />
        </mxCell>
        <mxCell id="7KlJihol-ttdbcdvMVpt-93" style="edgeStyle=none;rounded=0;orthogonalLoop=1;jettySize=auto;html=1;entryX=0.5;entryY=0;entryDx=0;entryDy=0;" parent="7KlJihol-ttdbcdvMVpt-91" source="7KlJihol-ttdbcdvMVpt-94" target="7KlJihol-ttdbcdvMVpt-98" edge="1">
          <mxGeometry relative="1" as="geometry">
            <mxPoint x="95.17857142857142" y="88" as="targetPoint" />
          </mxGeometry>
        </mxCell>
        <mxCell id="7KlJihol-ttdbcdvMVpt-94" value="&lt;b&gt;output_variables_reset(shd)&lt;/b&gt;" style="whiteSpace=wrap;html=1;rounded=1;fillColor=#FFFFFF;" parent="7KlJihol-ttdbcdvMVpt-91" vertex="1">
          <mxGeometry x="15.249999999999995" y="19.995555555555597" width="186.69642857142856" height="39.11111111111111" as="geometry" />
        </mxCell>
        <mxCell id="7KlJihol-ttdbcdvMVpt-95" value="end subroutine" style="whiteSpace=wrap;html=1;rounded=1;fillColor=#FFFFFF;" parent="7KlJihol-ttdbcdvMVpt-91" vertex="1">
          <mxGeometry x="43.92857142857142" y="215.1111111111111" width="98.83928571428571" height="29.333333333333332" as="geometry" />
        </mxCell>
        <mxCell id="7KlJihol-ttdbcdvMVpt-96" value="" style="edgeStyle=orthogonalEdgeStyle;rounded=0;orthogonalLoop=1;jettySize=auto;html=1;" parent="7KlJihol-ttdbcdvMVpt-91" source="7KlJihol-ttdbcdvMVpt-98" target="7KlJihol-ttdbcdvMVpt-99" edge="1">
          <mxGeometry relative="1" as="geometry" />
        </mxCell>
        <mxCell id="7KlJihol-ttdbcdvMVpt-97" style="rounded=0;orthogonalLoop=1;jettySize=auto;html=1;" parent="7KlJihol-ttdbcdvMVpt-91" source="7KlJihol-ttdbcdvMVpt-98" target="7KlJihol-ttdbcdvMVpt-102" edge="1">
          <mxGeometry relative="1" as="geometry" />
        </mxCell>
        <mxCell id="7KlJihol-ttdbcdvMVpt-98" value="&lt;div&gt;ro%RUNTILE == True&lt;/div&gt;" style="rhombus;whiteSpace=wrap;html=1;rounded=1;fillColor=#F19C99;" parent="7KlJihol-ttdbcdvMVpt-91" vertex="1">
          <mxGeometry x="15.248095238095239" y="88" width="156.19047619047618" height="39.11111111111111" as="geometry" />
        </mxCell>
        <mxCell id="7KlJihol-ttdbcdvMVpt-99" value="call output_variables_group_reset (out%ts%tile)" style="whiteSpace=wrap;html=1;fillColor=#FFFFFF;rounded=1;" parent="7KlJihol-ttdbcdvMVpt-91" vertex="1">
          <mxGeometry x="190.97214285714284" y="80.66666666666663" width="189.74214285714285" height="53.77777777777778" as="geometry" />
        </mxCell>
        <mxCell id="7KlJihol-ttdbcdvMVpt-100" style="edgeStyle=orthogonalEdgeStyle;rounded=0;orthogonalLoop=1;jettySize=auto;html=1;exitX=1;exitY=0.5;exitDx=0;exitDy=0;entryX=0;entryY=0.5;entryDx=0;entryDy=0;" parent="7KlJihol-ttdbcdvMVpt-91" source="7KlJihol-ttdbcdvMVpt-102" target="7KlJihol-ttdbcdvMVpt-103" edge="1">
          <mxGeometry relative="1" as="geometry" />
        </mxCell>
        <mxCell id="7KlJihol-ttdbcdvMVpt-101" style="rounded=0;orthogonalLoop=1;jettySize=auto;html=1;exitX=0.5;exitY=1;exitDx=0;exitDy=0;" parent="7KlJihol-ttdbcdvMVpt-91" source="7KlJihol-ttdbcdvMVpt-102" target="7KlJihol-ttdbcdvMVpt-95" edge="1">
          <mxGeometry relative="1" as="geometry" />
        </mxCell>
        <mxCell id="7KlJihol-ttdbcdvMVpt-102" value="&lt;div&gt;ro%RUNGRID== True&lt;/div&gt;" style="rhombus;whiteSpace=wrap;html=1;rounded=1;fillColor=#F19C99;" parent="7KlJihol-ttdbcdvMVpt-91" vertex="1">
          <mxGeometry y="151.55555555555554" width="156.19047619047618" height="39.11111111111111" as="geometry" />
        </mxCell>
        <mxCell id="7KlJihol-ttdbcdvMVpt-103" value="&lt;div&gt;call output_variables_group_reset (out%ts%grid)&lt;/div&gt;&lt;div&gt;&amp;nbsp; call output_variables_group_reset (out%ts%basin)&lt;/div&gt;" style="whiteSpace=wrap;html=1;fillColor=#FFFFFF;rounded=1;" parent="7KlJihol-ttdbcdvMVpt-91" vertex="1">
          <mxGeometry x="192.495" y="136.8888888888889" width="186.69642857142856" height="68.44444444444444" as="geometry" />
        </mxCell>
        <mxCell id="7KlJihol-ttdbcdvMVpt-104" style="edgeStyle=none;rounded=0;orthogonalLoop=1;jettySize=auto;html=1;entryX=0.5;entryY=0;entryDx=0;entryDy=0;" parent="7KlJihol-ttdbcdvMVpt-91" source="7KlJihol-ttdbcdvMVpt-105" target="7KlJihol-ttdbcdvMVpt-108" edge="1">
          <mxGeometry relative="1" as="geometry">
            <mxPoint x="103.10523809523798" y="322.66666666666663" as="targetPoint" />
          </mxGeometry>
        </mxCell>
        <mxCell id="7KlJihol-ttdbcdvMVpt-105" value="&lt;b&gt;output_variables_group_reset(group)&lt;/b&gt;" style="whiteSpace=wrap;html=1;rounded=1;fillColor=#FFFFFF;" parent="7KlJihol-ttdbcdvMVpt-91" vertex="1">
          <mxGeometry x="29.29547619047618" y="283.55555555555554" width="224.52380952380952" height="39.11111111111111" as="geometry" />
        </mxCell>
        <mxCell id="7KlJihol-ttdbcdvMVpt-106" value="end subroutine" style="whiteSpace=wrap;html=1;rounded=1;fillColor=#FFFFFF;" parent="7KlJihol-ttdbcdvMVpt-91" vertex="1">
          <mxGeometry x="92.13285714285712" y="396" width="98.83928571428571" height="29.333333333333332" as="geometry" />
        </mxCell>
        <mxCell id="7KlJihol-ttdbcdvMVpt-107" style="edgeStyle=orthogonalEdgeStyle;rounded=0;orthogonalLoop=1;jettySize=auto;html=1;entryX=0.5;entryY=0;entryDx=0;entryDy=0;" parent="7KlJihol-ttdbcdvMVpt-91" source="7KlJihol-ttdbcdvMVpt-108" target="7KlJihol-ttdbcdvMVpt-106" edge="1">
          <mxGeometry relative="1" as="geometry" />
        </mxCell>
        <mxCell id="7KlJihol-ttdbcdvMVpt-108" value="Initialize variablesin group to 0.0 or NO_data" style="whiteSpace=wrap;html=1;fillColor=#FFFFFF;rounded=1;" parent="7KlJihol-ttdbcdvMVpt-91" vertex="1">
          <mxGeometry x="9.761904761904756" y="352" width="263.57142857142856" height="24.444444444444443" as="geometry" />
        </mxCell>
        <mxCell id="7KlJihol-ttdbcdvMVpt-109" value="" style="group" parent="1" vertex="1" connectable="0">
          <mxGeometry x="690" y="140" width="410" height="930" as="geometry" />
        </mxCell>
        <mxCell id="7KlJihol-ttdbcdvMVpt-110" value="" style="rounded=0;whiteSpace=wrap;html=1;" parent="7KlJihol-ttdbcdvMVpt-109" vertex="1">
          <mxGeometry width="410" height="930" as="geometry" />
        </mxCell>
        <mxCell id="7KlJihol-ttdbcdvMVpt-111" value="" style="edgeStyle=orthogonalEdgeStyle;rounded=0;orthogonalLoop=1;jettySize=auto;html=1;" parent="7KlJihol-ttdbcdvMVpt-109" source="7KlJihol-ttdbcdvMVpt-112" target="7KlJihol-ttdbcdvMVpt-117" edge="1">
          <mxGeometry relative="1" as="geometry" />
        </mxCell>
        <mxCell id="7KlJihol-ttdbcdvMVpt-112" value="&lt;b&gt;inteface output_variables_activate&lt;/b&gt;" style="rounded=1;whiteSpace=wrap;html=1;" parent="7KlJihol-ttdbcdvMVpt-109" vertex="1">
          <mxGeometry x="110" y="20" width="210" height="50" as="geometry" />
        </mxCell>
        <mxCell id="7KlJihol-ttdbcdvMVpt-113" value="" style="rounded=0;orthogonalLoop=1;jettySize=auto;html=1;" parent="7KlJihol-ttdbcdvMVpt-109" source="7KlJihol-ttdbcdvMVpt-117" target="7KlJihol-ttdbcdvMVpt-119" edge="1">
          <mxGeometry relative="1" as="geometry" />
        </mxCell>
        <mxCell id="7KlJihol-ttdbcdvMVpt-114" value="2" style="edgeLabel;html=1;align=center;verticalAlign=middle;resizable=0;points=[];" parent="7KlJihol-ttdbcdvMVpt-113" vertex="1" connectable="0">
          <mxGeometry x="-0.175" y="-1" relative="1" as="geometry">
            <mxPoint as="offset" />
          </mxGeometry>
        </mxCell>
        <mxCell id="7KlJihol-ttdbcdvMVpt-115" style="rounded=0;orthogonalLoop=1;jettySize=auto;html=1;entryX=0.25;entryY=0;entryDx=0;entryDy=0;" parent="7KlJihol-ttdbcdvMVpt-109" source="7KlJihol-ttdbcdvMVpt-117" target="7KlJihol-ttdbcdvMVpt-120" edge="1">
          <mxGeometry relative="1" as="geometry" />
        </mxCell>
        <mxCell id="7KlJihol-ttdbcdvMVpt-116" value="4" style="edgeLabel;html=1;align=center;verticalAlign=middle;resizable=0;points=[];" parent="7KlJihol-ttdbcdvMVpt-115" vertex="1" connectable="0">
          <mxGeometry x="0.0722" y="-1" relative="1" as="geometry">
            <mxPoint as="offset" />
          </mxGeometry>
        </mxCell>
        <mxCell id="7KlJihol-ttdbcdvMVpt-117" value="Number of arguments passed" style="whiteSpace=wrap;html=1;rounded=1;" parent="7KlJihol-ttdbcdvMVpt-109" vertex="1">
          <mxGeometry x="152.5" y="100" width="125" height="30" as="geometry" />
        </mxCell>
        <mxCell id="7KlJihol-ttdbcdvMVpt-118" style="rounded=0;orthogonalLoop=1;jettySize=auto;html=1;exitX=0.75;exitY=1;exitDx=0;exitDy=0;" parent="7KlJihol-ttdbcdvMVpt-109" source="7KlJihol-ttdbcdvMVpt-119" target="7KlJihol-ttdbcdvMVpt-121" edge="1">
          <mxGeometry relative="1" as="geometry" />
        </mxCell>
        <mxCell id="7KlJihol-ttdbcdvMVpt-119" value="call output_variables_activate_vnames" style="whiteSpace=wrap;html=1;rounded=1;fillColor=#CCFFCC;" parent="7KlJihol-ttdbcdvMVpt-109" vertex="1">
          <mxGeometry x="20" y="160" width="190" height="40" as="geometry" />
        </mxCell>
        <mxCell id="7KlJihol-ttdbcdvMVpt-120" value="call output_variables_activate_pntr" style="whiteSpace=wrap;html=1;rounded=1;fillColor=#CCFFCC;" parent="7KlJihol-ttdbcdvMVpt-109" vertex="1">
          <mxGeometry x="220" y="160" width="180" height="40" as="geometry" />
        </mxCell>
        <mxCell id="7KlJihol-ttdbcdvMVpt-121" value="end interface" style="whiteSpace=wrap;html=1;rounded=1;" parent="7KlJihol-ttdbcdvMVpt-109" vertex="1">
          <mxGeometry x="170" y="240" width="97.5" height="30" as="geometry" />
        </mxCell>
        <mxCell id="7KlJihol-ttdbcdvMVpt-122" style="edgeStyle=none;rounded=0;orthogonalLoop=1;jettySize=auto;html=1;exitX=0.25;exitY=1;exitDx=0;exitDy=0;" parent="7KlJihol-ttdbcdvMVpt-109" source="7KlJihol-ttdbcdvMVpt-120" edge="1">
          <mxGeometry relative="1" as="geometry">
            <mxPoint x="240" y="240" as="targetPoint" />
          </mxGeometry>
        </mxCell>
        <mxCell id="7KlJihol-ttdbcdvMVpt-123" style="edgeStyle=none;rounded=0;orthogonalLoop=1;jettySize=auto;html=1;entryX=0.5;entryY=0;entryDx=0;entryDy=0;" parent="7KlJihol-ttdbcdvMVpt-109" source="7KlJihol-ttdbcdvMVpt-124" target="7KlJihol-ttdbcdvMVpt-126" edge="1">
          <mxGeometry relative="1" as="geometry" />
        </mxCell>
        <mxCell id="7KlJihol-ttdbcdvMVpt-124" value="&lt;b&gt;output_variables_activate_vnames (fields, vnames)&lt;/b&gt;" style="whiteSpace=wrap;html=1;rounded=1;fillColor=#FFFFFF;" parent="7KlJihol-ttdbcdvMVpt-109" vertex="1">
          <mxGeometry x="106.25" y="680" width="217.5" height="50" as="geometry" />
        </mxCell>
        <mxCell id="7KlJihol-ttdbcdvMVpt-125" value="" style="group" parent="7KlJihol-ttdbcdvMVpt-109" vertex="1" connectable="0">
          <mxGeometry x="90" y="760" width="250" height="90" as="geometry" />
        </mxCell>
        <mxCell id="7KlJihol-ttdbcdvMVpt-126" value="" style="rounded=0;whiteSpace=wrap;html=1;" parent="7KlJihol-ttdbcdvMVpt-125" vertex="1">
          <mxGeometry width="250" height="90" as="geometry" />
        </mxCell>
        <mxCell id="7KlJihol-ttdbcdvMVpt-127" value="&lt;b&gt;call output_variables_activate_pntr (fields, vnames(i))&lt;/b&gt;" style="whiteSpace=wrap;html=1;rounded=1;fillColor=#CCFFCC;" parent="7KlJihol-ttdbcdvMVpt-125" vertex="1">
          <mxGeometry x="23.75" y="30" width="205" height="50" as="geometry" />
        </mxCell>
        <mxCell id="7KlJihol-ttdbcdvMVpt-128" value="do i = 1, size(vnames)" style="text;html=1;align=center;verticalAlign=middle;whiteSpace=wrap;rounded=0;" parent="7KlJihol-ttdbcdvMVpt-125" vertex="1">
          <mxGeometry x="6.25" y="4" width="120" height="20" as="geometry" />
        </mxCell>
        <mxCell id="7KlJihol-ttdbcdvMVpt-129" value="end subroutine" style="whiteSpace=wrap;html=1;rounded=1;fillColor=#FFFFFF;" parent="7KlJihol-ttdbcdvMVpt-109" vertex="1">
          <mxGeometry x="164.38" y="880" width="101.25" height="30" as="geometry" />
        </mxCell>
        <mxCell id="7KlJihol-ttdbcdvMVpt-130" value="" style="edgeStyle=none;rounded=0;orthogonalLoop=1;jettySize=auto;html=1;exitX=0.5;exitY=1;exitDx=0;exitDy=0;" parent="7KlJihol-ttdbcdvMVpt-109" source="7KlJihol-ttdbcdvMVpt-126" target="7KlJihol-ttdbcdvMVpt-129" edge="1">
          <mxGeometry relative="1" as="geometry">
            <mxPoint x="216" y="860" as="sourcePoint" />
          </mxGeometry>
        </mxCell>
        <mxCell id="7KlJihol-ttdbcdvMVpt-131" style="edgeStyle=none;rounded=0;orthogonalLoop=1;jettySize=auto;html=1;" parent="7KlJihol-ttdbcdvMVpt-109" source="7KlJihol-ttdbcdvMVpt-132" target="7KlJihol-ttdbcdvMVpt-136" edge="1">
          <mxGeometry relative="1" as="geometry">
            <mxPoint x="218.75" y="370" as="targetPoint" />
          </mxGeometry>
        </mxCell>
        <mxCell id="7KlJihol-ttdbcdvMVpt-132" value="&lt;b&gt;output_variables_activate_pntr (fields, vname, pntr, ig)&lt;/b&gt;" style="whiteSpace=wrap;html=1;rounded=1;fillColor=#FFFFFF;" parent="7KlJihol-ttdbcdvMVpt-109" vertex="1">
          <mxGeometry x="110" y="290" width="217.5" height="50" as="geometry" />
        </mxCell>
        <mxCell id="7KlJihol-ttdbcdvMVpt-133" value="end subroutine" style="whiteSpace=wrap;html=1;rounded=1;fillColor=#FFFFFF;" parent="7KlJihol-ttdbcdvMVpt-109" vertex="1">
          <mxGeometry x="170" y="620" width="101.25" height="30" as="geometry" />
        </mxCell>
        <mxCell id="7KlJihol-ttdbcdvMVpt-134" value="" style="edgeStyle=none;rounded=0;orthogonalLoop=1;jettySize=auto;html=1;exitX=0.5;exitY=1;exitDx=0;exitDy=0;" parent="7KlJihol-ttdbcdvMVpt-109" source="7KlJihol-ttdbcdvMVpt-137" target="7KlJihol-ttdbcdvMVpt-133" edge="1">
          <mxGeometry relative="1" as="geometry">
            <mxPoint x="215" y="610" as="sourcePoint" />
          </mxGeometry>
        </mxCell>
        <mxCell id="7KlJihol-ttdbcdvMVpt-135" style="edgeStyle=none;rounded=0;orthogonalLoop=1;jettySize=auto;html=1;" parent="7KlJihol-ttdbcdvMVpt-109" source="7KlJihol-ttdbcdvMVpt-136" target="7KlJihol-ttdbcdvMVpt-139" edge="1">
          <mxGeometry relative="1" as="geometry" />
        </mxCell>
        <mxCell id="7KlJihol-ttdbcdvMVpt-136" value="Allocate output variable &lt;b&gt;vname &lt;/b&gt;(can be found in variable_namesf90)&amp;nbsp;and other associated variables&amp;nbsp;to&lt;b&gt;&amp;nbsp;fields &lt;/b&gt;array and associate it to &lt;b&gt;pntr.&lt;/b&gt;&lt;br&gt;&lt;b&gt;&amp;nbsp;e.g call output_variables_allocate(fields%fsin, n1, pntr)&lt;/b&gt;" style="whiteSpace=wrap;html=1;rounded=1;fillColor=#CCFFCC;" parent="7KlJihol-ttdbcdvMVpt-109" vertex="1">
          <mxGeometry x="80" y="370" width="277.5" height="100" as="geometry" />
        </mxCell>
        <mxCell id="7KlJihol-ttdbcdvMVpt-137" value="Assign &#39;NO_DATA&#39; to pntr is pointer not assigned" style="whiteSpace=wrap;html=1;rounded=1;" parent="7KlJihol-ttdbcdvMVpt-109" vertex="1">
          <mxGeometry x="148.12" y="550" width="145.01" height="50" as="geometry" />
        </mxCell>
        <mxCell id="7KlJihol-ttdbcdvMVpt-138" style="edgeStyle=none;rounded=0;orthogonalLoop=1;jettySize=auto;html=1;entryX=0.5;entryY=0;entryDx=0;entryDy=0;" parent="7KlJihol-ttdbcdvMVpt-109" source="7KlJihol-ttdbcdvMVpt-139" target="7KlJihol-ttdbcdvMVpt-137" edge="1">
          <mxGeometry relative="1" as="geometry" />
        </mxCell>
        <mxCell id="7KlJihol-ttdbcdvMVpt-139" value="Recurse on certain vname e.g.&amp;nbsp;&amp;nbsp;&lt;b&gt;VN_STGW, etc.&lt;/b&gt;" style="whiteSpace=wrap;html=1;rounded=1;" parent="7KlJihol-ttdbcdvMVpt-109" vertex="1">
          <mxGeometry x="133.44000000000005" y="490" width="174.37" height="40" as="geometry" />
        </mxCell>
        <mxCell id="7KlJihol-ttdbcdvMVpt-140" value="" style="group" parent="1" vertex="1" connectable="0">
          <mxGeometry x="40" y="1115" width="1270" height="655" as="geometry" />
        </mxCell>
        <mxCell id="7KlJihol-ttdbcdvMVpt-141" value="" style="rounded=0;whiteSpace=wrap;html=1;" parent="7KlJihol-ttdbcdvMVpt-140" vertex="1">
          <mxGeometry width="1270" height="655" as="geometry" />
        </mxCell>
        <mxCell id="7KlJihol-ttdbcdvMVpt-142" value="" style="edgeStyle=orthogonalEdgeStyle;rounded=0;orthogonalLoop=1;jettySize=auto;html=1;" parent="7KlJihol-ttdbcdvMVpt-140" source="7KlJihol-ttdbcdvMVpt-143" target="7KlJihol-ttdbcdvMVpt-149" edge="1">
          <mxGeometry relative="1" as="geometry" />
        </mxCell>
        <mxCell id="7KlJihol-ttdbcdvMVpt-143" value="&lt;b&gt;output_variables_update(shd)&lt;/b&gt;" style="whiteSpace=wrap;html=1;rounded=1;fillColor=#FFFFFF;" parent="7KlJihol-ttdbcdvMVpt-140" vertex="1">
          <mxGeometry x="80" y="35" width="177.95" height="40" as="geometry" />
        </mxCell>
        <mxCell id="7KlJihol-ttdbcdvMVpt-144" value="end subroutine" style="whiteSpace=wrap;html=1;rounded=1;fillColor=#FFFFFF;" parent="7KlJihol-ttdbcdvMVpt-140" vertex="1">
          <mxGeometry x="119.55047619047619" y="275.0011111111112" width="98.83928571428571" height="29.333333333333332" as="geometry" />
        </mxCell>
        <mxCell id="7KlJihol-ttdbcdvMVpt-145" style="rounded=0;orthogonalLoop=1;jettySize=auto;html=1;exitX=0.5;exitY=1;exitDx=0;exitDy=0;" parent="7KlJihol-ttdbcdvMVpt-140" source="7KlJihol-ttdbcdvMVpt-146" target="7KlJihol-ttdbcdvMVpt-156" edge="1">
          <mxGeometry relative="1" as="geometry" />
        </mxCell>
        <mxCell id="7KlJihol-ttdbcdvMVpt-146" value="&lt;b&gt;output_variables_update_ts(shd)&lt;/b&gt;" style="whiteSpace=wrap;html=1;rounded=1;fillColor=#FFFFFF;" parent="7KlJihol-ttdbcdvMVpt-140" vertex="1">
          <mxGeometry x="308.33" y="55" width="195.46" height="30" as="geometry" />
        </mxCell>
        <mxCell id="7KlJihol-ttdbcdvMVpt-147" value="" style="edgeStyle=orthogonalEdgeStyle;rounded=0;orthogonalLoop=1;jettySize=auto;html=1;" parent="7KlJihol-ttdbcdvMVpt-140" source="7KlJihol-ttdbcdvMVpt-149" target="7KlJihol-ttdbcdvMVpt-152" edge="1">
          <mxGeometry relative="1" as="geometry" />
        </mxCell>
        <mxCell id="7KlJihol-ttdbcdvMVpt-148" style="edgeStyle=none;rounded=0;orthogonalLoop=1;jettySize=auto;html=1;exitX=1;exitY=0;exitDx=0;exitDy=0;entryX=0;entryY=0.5;entryDx=0;entryDy=0;" parent="7KlJihol-ttdbcdvMVpt-140" source="7KlJihol-ttdbcdvMVpt-149" target="7KlJihol-ttdbcdvMVpt-146" edge="1">
          <mxGeometry relative="1" as="geometry" />
        </mxCell>
        <mxCell id="7KlJihol-ttdbcdvMVpt-149" value="call output_variables_update_ts(shd)" style="whiteSpace=wrap;html=1;fillColor=#CCFFCC;rounded=1;" parent="7KlJihol-ttdbcdvMVpt-140" vertex="1">
          <mxGeometry x="65.69999999999999" y="105" width="206.54" height="30" as="geometry" />
        </mxCell>
        <mxCell id="7KlJihol-ttdbcdvMVpt-150" style="edgeStyle=orthogonalEdgeStyle;rounded=0;orthogonalLoop=1;jettySize=auto;html=1;" parent="7KlJihol-ttdbcdvMVpt-140" source="7KlJihol-ttdbcdvMVpt-152" target="7KlJihol-ttdbcdvMVpt-144" edge="1">
          <mxGeometry relative="1" as="geometry" />
        </mxCell>
        <mxCell id="7KlJihol-ttdbcdvMVpt-151" style="edgeStyle=none;rounded=0;orthogonalLoop=1;jettySize=auto;html=1;exitX=0;exitY=0.5;exitDx=0;exitDy=0;entryX=0.034;entryY=-0.033;entryDx=0;entryDy=0;entryPerimeter=0;" parent="7KlJihol-ttdbcdvMVpt-140" source="7KlJihol-ttdbcdvMVpt-152" target="7KlJihol-ttdbcdvMVpt-165" edge="1">
          <mxGeometry relative="1" as="geometry">
            <Array as="points">
              <mxPoint x="20" y="205" />
            </Array>
          </mxGeometry>
        </mxCell>
        <mxCell id="7KlJihol-ttdbcdvMVpt-152" value="For each Totals, Yearly, Monthly, Daily, Hourly values:&lt;div&gt;call output_variables_series_update&lt;br&gt;&lt;/div&gt;" style="whiteSpace=wrap;html=1;fillColor=#CCFFCC;rounded=1;" parent="7KlJihol-ttdbcdvMVpt-140" vertex="1">
          <mxGeometry x="55.7" y="165" width="226.55" height="80" as="geometry" />
        </mxCell>
        <mxCell id="7KlJihol-ttdbcdvMVpt-153" value="end subroutine" style="whiteSpace=wrap;html=1;rounded=1;fillColor=#FFFFFF;" parent="7KlJihol-ttdbcdvMVpt-140" vertex="1">
          <mxGeometry x="344.6704761904761" y="235.00111111111096" width="98.83928571428571" height="29.333333333333332" as="geometry" />
        </mxCell>
        <mxCell id="7KlJihol-ttdbcdvMVpt-154" style="edgeStyle=none;rounded=0;orthogonalLoop=1;jettySize=auto;html=1;exitX=0.5;exitY=1;exitDx=0;exitDy=0;" parent="7KlJihol-ttdbcdvMVpt-140" source="7KlJihol-ttdbcdvMVpt-156" target="7KlJihol-ttdbcdvMVpt-161" edge="1">
          <mxGeometry relative="1" as="geometry" />
        </mxCell>
        <mxCell id="7KlJihol-ttdbcdvMVpt-155" style="edgeStyle=none;rounded=0;orthogonalLoop=1;jettySize=auto;html=1;exitX=1;exitY=0.5;exitDx=0;exitDy=0;entryX=0;entryY=0.5;entryDx=0;entryDy=0;" parent="7KlJihol-ttdbcdvMVpt-140" source="7KlJihol-ttdbcdvMVpt-156" target="7KlJihol-ttdbcdvMVpt-158" edge="1">
          <mxGeometry relative="1" as="geometry" />
        </mxCell>
        <mxCell id="7KlJihol-ttdbcdvMVpt-156" value="&lt;div&gt;ro%RUNTILE == True&lt;/div&gt;" style="rhombus;whiteSpace=wrap;html=1;rounded=1;fillColor=#F19C99;" parent="7KlJihol-ttdbcdvMVpt-140" vertex="1">
          <mxGeometry x="315.98999999999995" y="115" width="156.19047619047618" height="39.11111111111111" as="geometry" />
        </mxCell>
        <mxCell id="7KlJihol-ttdbcdvMVpt-157" style="edgeStyle=none;rounded=0;orthogonalLoop=1;jettySize=auto;html=1;exitX=1;exitY=0.5;exitDx=0;exitDy=0;entryX=0;entryY=0.75;entryDx=0;entryDy=0;" parent="7KlJihol-ttdbcdvMVpt-140" source="7KlJihol-ttdbcdvMVpt-158" target="7KlJihol-ttdbcdvMVpt-178" edge="1">
          <mxGeometry relative="1" as="geometry" />
        </mxCell>
        <mxCell id="7KlJihol-ttdbcdvMVpt-158" value="call output_variables_group_update_ts (shd, out%ts%tile, vs%tile)" style="whiteSpace=wrap;html=1;fillColor=#CCFFCC;rounded=1;" parent="7KlJihol-ttdbcdvMVpt-140" vertex="1">
          <mxGeometry x="503.7899999999999" y="104.1099999999999" width="214.49" height="50" as="geometry" />
        </mxCell>
        <mxCell id="7KlJihol-ttdbcdvMVpt-159" style="edgeStyle=none;rounded=0;orthogonalLoop=1;jettySize=auto;html=1;entryX=0;entryY=0.5;entryDx=0;entryDy=0;" parent="7KlJihol-ttdbcdvMVpt-140" source="7KlJihol-ttdbcdvMVpt-161" target="7KlJihol-ttdbcdvMVpt-163" edge="1">
          <mxGeometry relative="1" as="geometry" />
        </mxCell>
        <mxCell id="7KlJihol-ttdbcdvMVpt-160" style="edgeStyle=none;rounded=0;orthogonalLoop=1;jettySize=auto;html=1;exitX=0.5;exitY=1;exitDx=0;exitDy=0;" parent="7KlJihol-ttdbcdvMVpt-140" source="7KlJihol-ttdbcdvMVpt-161" target="7KlJihol-ttdbcdvMVpt-153" edge="1">
          <mxGeometry relative="1" as="geometry" />
        </mxCell>
        <mxCell id="7KlJihol-ttdbcdvMVpt-161" value="&lt;div&gt;ro%RUNGRID== True&lt;/div&gt;" style="rhombus;whiteSpace=wrap;html=1;rounded=1;fillColor=#F19C99;" parent="7KlJihol-ttdbcdvMVpt-140" vertex="1">
          <mxGeometry x="315.98999999999995" y="175.8900000000001" width="147.8" height="39.11" as="geometry" />
        </mxCell>
        <mxCell id="7KlJihol-ttdbcdvMVpt-162" style="edgeStyle=none;rounded=0;orthogonalLoop=1;jettySize=auto;html=1;exitX=1;exitY=0;exitDx=0;exitDy=0;" parent="7KlJihol-ttdbcdvMVpt-140" source="7KlJihol-ttdbcdvMVpt-163" edge="1">
          <mxGeometry relative="1" as="geometry">
            <mxPoint x="790" y="35" as="targetPoint" />
          </mxGeometry>
        </mxCell>
        <mxCell id="7KlJihol-ttdbcdvMVpt-163" value="&lt;div&gt;call output_variables_group_update_ts&amp;nbsp;&lt;/div&gt;&lt;div&gt;(shd, out%ts%grid, vs%grid)&lt;/div&gt;&lt;div&gt;call output_variables_group_update_ts (shd, out%ts%basin, vs%basin)&lt;/div&gt;" style="whiteSpace=wrap;html=1;fillColor=#CCFFCC;rounded=1;" parent="7KlJihol-ttdbcdvMVpt-140" vertex="1">
          <mxGeometry x="503.79" y="162.22000000000003" width="224.02" height="66.45" as="geometry" />
        </mxCell>
        <mxCell id="7KlJihol-ttdbcdvMVpt-164" style="rounded=0;orthogonalLoop=1;jettySize=auto;html=1;exitX=0.5;exitY=1;exitDx=0;exitDy=0;" parent="7KlJihol-ttdbcdvMVpt-140" source="7KlJihol-ttdbcdvMVpt-165" target="7KlJihol-ttdbcdvMVpt-169" edge="1">
          <mxGeometry relative="1" as="geometry" />
        </mxCell>
        <mxCell id="7KlJihol-ttdbcdvMVpt-165" value="&lt;b&gt;output_variables_series_update(shd, series, its)&lt;/b&gt;" style="whiteSpace=wrap;html=1;rounded=1;fillColor=#FFFFFF;" parent="7KlJihol-ttdbcdvMVpt-140" vertex="1">
          <mxGeometry x="10.000000000000004" y="375" width="234.3" height="30" as="geometry" />
        </mxCell>
        <mxCell id="7KlJihol-ttdbcdvMVpt-166" value="end subroutine" style="whiteSpace=wrap;html=1;rounded=1;fillColor=#FFFFFF;" parent="7KlJihol-ttdbcdvMVpt-140" vertex="1">
          <mxGeometry x="73.68047619047611" y="556.951111111111" width="98.83928571428571" height="29.333333333333332" as="geometry" />
        </mxCell>
        <mxCell id="7KlJihol-ttdbcdvMVpt-167" style="edgeStyle=none;rounded=0;orthogonalLoop=1;jettySize=auto;html=1;exitX=0.5;exitY=1;exitDx=0;exitDy=0;" parent="7KlJihol-ttdbcdvMVpt-140" source="7KlJihol-ttdbcdvMVpt-169" target="7KlJihol-ttdbcdvMVpt-174" edge="1">
          <mxGeometry relative="1" as="geometry" />
        </mxCell>
        <mxCell id="7KlJihol-ttdbcdvMVpt-168" style="edgeStyle=none;rounded=0;orthogonalLoop=1;jettySize=auto;html=1;exitX=1;exitY=0.5;exitDx=0;exitDy=0;entryX=0;entryY=0.5;entryDx=0;entryDy=0;" parent="7KlJihol-ttdbcdvMVpt-140" source="7KlJihol-ttdbcdvMVpt-169" target="7KlJihol-ttdbcdvMVpt-171" edge="1">
          <mxGeometry relative="1" as="geometry" />
        </mxCell>
        <mxCell id="7KlJihol-ttdbcdvMVpt-169" value="&lt;div&gt;ro%RUNTILE == True&lt;/div&gt;" style="rhombus;whiteSpace=wrap;html=1;rounded=1;fillColor=#F19C99;" parent="7KlJihol-ttdbcdvMVpt-140" vertex="1">
          <mxGeometry x="44.99999999999996" y="429.55999999999995" width="156.19047619047618" height="39.11111111111111" as="geometry" />
        </mxCell>
        <mxCell id="7KlJihol-ttdbcdvMVpt-170" style="edgeStyle=none;rounded=0;orthogonalLoop=1;jettySize=auto;html=1;exitX=1;exitY=0;exitDx=0;exitDy=0;entryX=0;entryY=0;entryDx=0;entryDy=0;" parent="7KlJihol-ttdbcdvMVpt-140" source="7KlJihol-ttdbcdvMVpt-171" target="7KlJihol-ttdbcdvMVpt-183" edge="1">
          <mxGeometry relative="1" as="geometry">
            <mxPoint x="540" y="375" as="targetPoint" />
          </mxGeometry>
        </mxCell>
        <mxCell id="7KlJihol-ttdbcdvMVpt-171" value="call output_variables_group_update (shd, series%tile, out%ts%tile, its)" style="whiteSpace=wrap;html=1;fillColor=#CCFFCC;rounded=1;" parent="7KlJihol-ttdbcdvMVpt-140" vertex="1">
          <mxGeometry x="225.50999999999993" y="424.1199999999999" width="214.49" height="50" as="geometry" />
        </mxCell>
        <mxCell id="7KlJihol-ttdbcdvMVpt-172" style="edgeStyle=none;rounded=0;orthogonalLoop=1;jettySize=auto;html=1;entryX=0;entryY=0.5;entryDx=0;entryDy=0;" parent="7KlJihol-ttdbcdvMVpt-140" source="7KlJihol-ttdbcdvMVpt-174" target="7KlJihol-ttdbcdvMVpt-176" edge="1">
          <mxGeometry relative="1" as="geometry" />
        </mxCell>
        <mxCell id="7KlJihol-ttdbcdvMVpt-173" style="edgeStyle=none;rounded=0;orthogonalLoop=1;jettySize=auto;html=1;exitX=0.5;exitY=1;exitDx=0;exitDy=0;" parent="7KlJihol-ttdbcdvMVpt-140" source="7KlJihol-ttdbcdvMVpt-174" target="7KlJihol-ttdbcdvMVpt-166" edge="1">
          <mxGeometry relative="1" as="geometry" />
        </mxCell>
        <mxCell id="7KlJihol-ttdbcdvMVpt-174" value="&lt;div&gt;ro%RUNGRID== True&lt;/div&gt;" style="rhombus;whiteSpace=wrap;html=1;rounded=1;fillColor=#F19C99;" parent="7KlJihol-ttdbcdvMVpt-140" vertex="1">
          <mxGeometry x="49.19999999999996" y="496" width="147.8" height="39.11" as="geometry" />
        </mxCell>
        <mxCell id="7KlJihol-ttdbcdvMVpt-175" style="edgeStyle=none;rounded=0;orthogonalLoop=1;jettySize=auto;html=1;exitX=1;exitY=0;exitDx=0;exitDy=0;entryX=0;entryY=0.25;entryDx=0;entryDy=0;" parent="7KlJihol-ttdbcdvMVpt-140" source="7KlJihol-ttdbcdvMVpt-176" target="7KlJihol-ttdbcdvMVpt-183" edge="1">
          <mxGeometry relative="1" as="geometry">
            <mxPoint x="540" y="375" as="targetPoint" />
          </mxGeometry>
        </mxCell>
        <mxCell id="7KlJihol-ttdbcdvMVpt-176" value="&lt;div&gt;call output_variables_group_update&amp;nbsp;&lt;/div&gt;&lt;div&gt;(shd, series%grid, out%ts%grid, its)&lt;/div&gt;&lt;div&gt;call output_variables_group_update&amp;nbsp;&lt;/div&gt;&lt;div&gt;(shd, series%basin, out%ts%basin, its)&lt;/div&gt;" style="whiteSpace=wrap;html=1;fillColor=#CCFFCC;rounded=1;" parent="7KlJihol-ttdbcdvMVpt-140" vertex="1">
          <mxGeometry x="218.39" y="474.16999999999985" width="228.84" height="82.78" as="geometry" />
        </mxCell>
        <mxCell id="7KlJihol-ttdbcdvMVpt-177" value="" style="edgeStyle=none;rounded=0;orthogonalLoop=1;jettySize=auto;html=1;" parent="7KlJihol-ttdbcdvMVpt-140" source="7KlJihol-ttdbcdvMVpt-178" target="7KlJihol-ttdbcdvMVpt-180" edge="1">
          <mxGeometry relative="1" as="geometry" />
        </mxCell>
        <mxCell id="7KlJihol-ttdbcdvMVpt-178" value="&lt;b&gt;output_variables_group_update_ts(shd, group, group_vs)&lt;/b&gt;" style="whiteSpace=wrap;html=1;rounded=1;fillColor=#FFFFFF;" parent="7KlJihol-ttdbcdvMVpt-140" vertex="1">
          <mxGeometry x="790.62" y="15" width="250" height="30" as="geometry" />
        </mxCell>
        <mxCell id="7KlJihol-ttdbcdvMVpt-179" style="edgeStyle=none;rounded=0;orthogonalLoop=1;jettySize=auto;html=1;exitX=0.5;exitY=1;exitDx=0;exitDy=0;" parent="7KlJihol-ttdbcdvMVpt-140" source="7KlJihol-ttdbcdvMVpt-180" target="7KlJihol-ttdbcdvMVpt-181" edge="1">
          <mxGeometry relative="1" as="geometry" />
        </mxCell>
        <mxCell id="7KlJihol-ttdbcdvMVpt-180" value="&lt;div&gt;Update output variables from current model states and variables.&amp;nbsp;&lt;span style=&quot;background-color: initial;&quot;&gt;Variables are updated if all elements of the group are equal to&amp;nbsp;&lt;/span&gt;&lt;span style=&quot;background-color: initial;&quot;&gt;the &#39;NO_DATA&#39; value; if not the case, updates are assumed to&amp;nbsp;&lt;/span&gt;&lt;span style=&quot;background-color: initial;&quot;&gt;have occured in the model (e.g., by process modules), and those&amp;nbsp;&lt;/span&gt;&lt;span style=&quot;background-color: initial;&quot;&gt;values are preserved.&lt;/span&gt;&lt;/div&gt;&lt;div&gt;&lt;span style=&quot;background-color: initial;&quot;&gt;&lt;br&gt;&lt;/span&gt;&lt;/div&gt;&lt;div style=&quot;text-align: left;&quot;&gt;&lt;span style=&quot;background-color: initial;&quot;&gt;e.g.&amp;nbsp;&lt;/span&gt;&lt;span style=&quot;background-color: initial;&quot;&gt;if (associated(group%vv)) then&lt;/span&gt;&lt;/div&gt;&lt;div style=&quot;text-align: left;&quot;&gt;&amp;nbsp; &amp;nbsp; &amp;nbsp; &amp;nbsp; &amp;nbsp; &amp;nbsp; if (all(group%vv == out%NO_DATA)) then&lt;/div&gt;&lt;div style=&quot;text-align: left;&quot;&gt;&amp;nbsp; &amp;nbsp; &amp;nbsp; &amp;nbsp; &amp;nbsp; &amp;nbsp; &amp;nbsp; &amp;nbsp; if (all(group_vs%vv /= huge(group_vs%vv))) &lt;span style=&quot;white-space: pre;&quot;&gt;&#x9;&lt;/span&gt;&lt;span style=&quot;white-space: pre;&quot;&gt;&#x9;&lt;/span&gt;then&lt;/div&gt;&lt;div style=&quot;text-align: left;&quot;&gt;&amp;nbsp; &amp;nbsp; &amp;nbsp; &amp;nbsp; &amp;nbsp; &amp;nbsp; &amp;nbsp; &amp;nbsp; &amp;nbsp; &amp;nbsp; group%vv = group_vs%vv&lt;/div&gt;&lt;div style=&quot;text-align: left;&quot;&gt;&amp;nbsp; &amp;nbsp; &amp;nbsp; &amp;nbsp; &amp;nbsp; &amp;nbsp; &amp;nbsp; &amp;nbsp; else&lt;/div&gt;&lt;div style=&quot;text-align: left;&quot;&gt;&amp;nbsp; &amp;nbsp; &amp;nbsp; &amp;nbsp; &amp;nbsp; &amp;nbsp; &amp;nbsp; &amp;nbsp; &amp;nbsp; &amp;nbsp; group%vv = 0.0&lt;/div&gt;" style="whiteSpace=wrap;html=1;fillColor=#FFFFFF;rounded=1;" parent="7KlJihol-ttdbcdvMVpt-140" vertex="1">
          <mxGeometry x="770" y="75" width="291.25" height="214.88" as="geometry" />
        </mxCell>
        <mxCell id="7KlJihol-ttdbcdvMVpt-181" value="end subroutine" style="whiteSpace=wrap;html=1;rounded=1;fillColor=#FFFFFF;" parent="7KlJihol-ttdbcdvMVpt-140" vertex="1">
          <mxGeometry x="866.2004761904761" y="304.33111111111094" width="98.83928571428571" height="29.333333333333332" as="geometry" />
        </mxCell>
        <mxCell id="7KlJihol-ttdbcdvMVpt-182" value="" style="edgeStyle=none;rounded=0;orthogonalLoop=1;jettySize=auto;html=1;" parent="7KlJihol-ttdbcdvMVpt-140" source="7KlJihol-ttdbcdvMVpt-183" target="7KlJihol-ttdbcdvMVpt-186" edge="1">
          <mxGeometry relative="1" as="geometry" />
        </mxCell>
        <mxCell id="7KlJihol-ttdbcdvMVpt-183" value="&lt;b&gt;output_variables_group_update(shd, group, group_vs)&lt;/b&gt;" style="whiteSpace=wrap;html=1;rounded=1;fillColor=#FFFFFF;" parent="7KlJihol-ttdbcdvMVpt-140" vertex="1">
          <mxGeometry x="553.44" y="385" width="250" height="30" as="geometry" />
        </mxCell>
        <mxCell id="7KlJihol-ttdbcdvMVpt-184" style="edgeStyle=none;rounded=0;orthogonalLoop=1;jettySize=auto;html=1;exitX=0.5;exitY=1;exitDx=0;exitDy=0;" parent="7KlJihol-ttdbcdvMVpt-140" source="7KlJihol-ttdbcdvMVpt-186" target="7KlJihol-ttdbcdvMVpt-187" edge="1">
          <mxGeometry relative="1" as="geometry" />
        </mxCell>
        <mxCell id="7KlJihol-ttdbcdvMVpt-185" style="rounded=0;orthogonalLoop=1;jettySize=auto;html=1;exitX=1;exitY=0;exitDx=0;exitDy=0;entryX=0;entryY=0.5;entryDx=0;entryDy=0;" parent="7KlJihol-ttdbcdvMVpt-140" source="7KlJihol-ttdbcdvMVpt-186" target="7KlJihol-ttdbcdvMVpt-189" edge="1">
          <mxGeometry relative="1" as="geometry" />
        </mxCell>
        <mxCell id="7KlJihol-ttdbcdvMVpt-186" value="&lt;div&gt;&lt;div&gt;Update output variables of larger time intervals from the &#39;ts&#39;&amp;nbsp;&lt;span style=&quot;background-color: initial;&quot;&gt;values.&lt;/span&gt;&lt;/div&gt;&lt;/div&gt;&lt;div&gt;&lt;span style=&quot;background-color: initial;&quot;&gt;&lt;br&gt;&lt;/span&gt;&lt;/div&gt;&lt;div style=&quot;text-align: left;&quot;&gt;&lt;span style=&quot;background-color: initial;&quot;&gt;&lt;span style=&quot;white-space: pre;&quot;&gt;&#x9;&lt;/span&gt;e.g.&amp;nbsp;&lt;/span&gt;&lt;span style=&quot;background-color: initial;&quot;&gt;if (associated(group%ifsin)) then&lt;/span&gt;&lt;/div&gt;&lt;div style=&quot;text-align: left;&quot;&gt;&amp;nbsp; &amp;nbsp; &amp;nbsp; &amp;nbsp; &amp;nbsp; call &lt;b&gt;output_variables_field_update&lt;/b&gt;(group%ifsin, &lt;span style=&quot;white-space: pre;&quot;&gt;&#x9;&lt;/span&gt;&lt;span style=&quot;white-space: pre;&quot;&gt;&#x9;&lt;/span&gt;group_ts%ifsin, its, &#39;sum&#39;)&lt;/div&gt;" style="whiteSpace=wrap;html=1;fillColor=#CCFFCC;rounded=1;" parent="7KlJihol-ttdbcdvMVpt-140" vertex="1">
          <mxGeometry x="493.39" y="445.1199999999999" width="362.81" height="99.88" as="geometry" />
        </mxCell>
        <mxCell id="7KlJihol-ttdbcdvMVpt-187" value="end subroutine" style="whiteSpace=wrap;html=1;rounded=1;fillColor=#FFFFFF;" parent="7KlJihol-ttdbcdvMVpt-140" vertex="1">
          <mxGeometry x="626.5804761904762" y="565.7811111111109" width="98.83928571428571" height="29.333333333333332" as="geometry" />
        </mxCell>
        <mxCell id="7KlJihol-ttdbcdvMVpt-188" style="edgeStyle=orthogonalEdgeStyle;rounded=0;orthogonalLoop=1;jettySize=auto;html=1;" parent="7KlJihol-ttdbcdvMVpt-140" source="7KlJihol-ttdbcdvMVpt-189" target="7KlJihol-ttdbcdvMVpt-192" edge="1">
          <mxGeometry relative="1" as="geometry" />
        </mxCell>
        <mxCell id="7KlJihol-ttdbcdvMVpt-189" value="&lt;b&gt;output_variables_field_update(dat, val, its, fn)&lt;/b&gt;" style="whiteSpace=wrap;html=1;rounded=1;fillColor=#FFFFFF;" parent="7KlJihol-ttdbcdvMVpt-140" vertex="1">
          <mxGeometry x="940.03" y="385" width="269.95" height="30" as="geometry" />
        </mxCell>
        <mxCell id="7KlJihol-ttdbcdvMVpt-190" value="end subroutine" style="whiteSpace=wrap;html=1;rounded=1;fillColor=#FFFFFF;" parent="7KlJihol-ttdbcdvMVpt-140" vertex="1">
          <mxGeometry x="1025.5804761904762" y="595.7811111111109" width="98.83928571428571" height="29.333333333333332" as="geometry" />
        </mxCell>
        <mxCell id="7KlJihol-ttdbcdvMVpt-191" style="edgeStyle=orthogonalEdgeStyle;rounded=0;orthogonalLoop=1;jettySize=auto;html=1;entryX=0.5;entryY=0;entryDx=0;entryDy=0;" parent="7KlJihol-ttdbcdvMVpt-140" source="7KlJihol-ttdbcdvMVpt-192" target="7KlJihol-ttdbcdvMVpt-194" edge="1">
          <mxGeometry relative="1" as="geometry" />
        </mxCell>
        <mxCell id="7KlJihol-ttdbcdvMVpt-192" value="Reset dat if it is the first time-step" style="whiteSpace=wrap;html=1;fillColor=#FFFFFF;rounded=1;" parent="7KlJihol-ttdbcdvMVpt-140" vertex="1">
          <mxGeometry x="975" y="435" width="200" height="30" as="geometry" />
        </mxCell>
        <mxCell id="7KlJihol-ttdbcdvMVpt-193" style="edgeStyle=orthogonalEdgeStyle;rounded=0;orthogonalLoop=1;jettySize=auto;html=1;" parent="7KlJihol-ttdbcdvMVpt-140" source="7KlJihol-ttdbcdvMVpt-194" target="7KlJihol-ttdbcdvMVpt-190" edge="1">
          <mxGeometry relative="1" as="geometry" />
        </mxCell>
        <mxCell id="7KlJihol-ttdbcdvMVpt-194" value="if fn == &#39;sum&#39; -&amp;gt;&amp;nbsp;Update the &#39;dat&#39; vector using the &#39;val&#39; vector&lt;div&gt;&lt;div&gt;if fn == &#39;avg&#39; -&amp;gt; Calculate an average using &#39;its&#39;&lt;/div&gt;&lt;/div&gt;&lt;div&gt;&lt;div&gt;if fn == &#39;max&#39; -&amp;gt; Update the &#39;dat&#39; vector using max of dat and val&lt;/div&gt;&lt;/div&gt;&lt;div&gt;if fn == &#39;min&#39; -&amp;gt; Update the &#39;dat&#39; vector using min of dat and val&lt;br&gt;&lt;/div&gt;" style="whiteSpace=wrap;html=1;fillColor=#FFFFFF;rounded=1;" parent="7KlJihol-ttdbcdvMVpt-140" vertex="1">
          <mxGeometry x="900" y="486.28" width="350" height="88.72" as="geometry" />
        </mxCell>
      </root>
    </mxGraphModel>
  </diagram>
</mxfile>
